# xmcd CD database file
#
# Track frame offsets:
#	182
#	11117
#	21702
#	32555
#	46410
#	59060
#	71220
#	86097
#	98942
#	112777
#	127160
#	138177
#	150610
#	161580
#	176235
#	189857
#
# Disc length: 2722 seconds
#
# Revision: 4
# Processed by: cddbd v1.5.2PL0 Copyright (c) Steve Scherf et al.
# Submitted via: CdAid (MTCDDB.DLL V2003.12.21)
#
DISCID=e30aa010
DTITLE=Dean Martin - Greatest Hits 7.6.1917 - 25.12.1995
DYEAR=1999
DGENRE=Oldies
TTITLE0=Cha Cha Cha D'Amour
TTITLE1=Memories Are Made Of This
TTITLE2=Buona Sera
TTITLE3=Rio Bravo
TTITLE4=Return To Me (Ritorna E Me)
TTITLE5=Hey Brother Pour The Wine
TTITLE6=Come Back To Sorento
TTITLE7=Write To Me From Naples
TTITLE8=Volare (Nel Blu Dipinto De Blu)
TTITLE9=That's Amore
TTITLE10=Baby, It's Cold Outside
TTITLE11=Take These Chains From My Heart
TTITLE12=Innamorata
TTITLE13=My Heart Cries For You
TTITLE14=Crying Time
TTITLE15=Release Me
EXTD=ID3G:  11 YEAR: 1999
EXTT0=
EXTT1=
EXTT2=
EXTT3=
EXTT4=
EXTT5=
EXTT6=
EXTT7=
EXTT8=
EXTT9=
EXTT10=
EXTT11=
EXTT12=
EXTT13=
EXTT14=
EXTT15=
PLAYORDER=
